<svg xmlns="http://www.w3.org/2000/svg" width="115.47" height="17.641" viewBox="0 0 115.47 17.641"><defs><style>.a{fill:#2e4962;}</style></defs><g transform="translate(-222.634 -350.606)"><path class="a" d="M226.762,366.567c0,.384.192.576.48.576h.528c.192,0,.24.048.24.216v.479c0,.121-.048.193-.192.193s-.96-.072-2.3-.072c-1.536,0-2.353.072-2.473.072s-.168-.1-.168-.24v-.457c0-.143.049-.191.24-.191h.625c.335,0,.48-.288.48-.576.048-.481.071-2.592.071-3.553l-.048-8.664c0-.912-.071-1.393-1.271-1.728-.24-.1-.336-.145-.336-.192v-.336c0-.1.1-.193.336-.24.672-.145,2.687-.912,3.024-1.008a2.417,2.417,0,0,1,.72-.24c.191,0,.216.1.191.384-.1,1.151-.143,4.7-.143,7.56V362.2a1.739,1.739,0,0,0,.96-.288,24.331,24.331,0,0,0,2.208-2.424.891.891,0,0,0,.168-.433c0-.143-.168-.311-.456-.311h-.216c-.12,0-.168-.049-.168-.193v-.5a.176.176,0,0,1,.192-.191c.144,0,1.008.072,2.4.072,1.319,0,1.9-.072,2.088-.072.12,0,.168.1.168.264v.432c0,.144-.048.193-.193.193h-.239a3.462,3.462,0,0,0-1.488.408,33.945,33.945,0,0,0-3.12,2.664c.719.815,4.128,4.607,4.7,4.992a2.707,2.707,0,0,0,1.248.336c.143,0,.192.048.192.216v.479c0,.145-.049.193-.24.193s-.864-.072-2.448-.072c-1.393,0-2.4.072-2.593.072-.144,0-.192-.048-.192-.24v-.408c0-.144.048-.192.192-.192h.192a.243.243,0,0,0,.241-.336c-.048-.24-2.305-2.929-2.833-3.552a1.105,1.105,0,0,0-.768-.289Z"/><path class="a" d="M241.321,366.783a4.656,4.656,0,0,1-2.088,1.3,5.03,5.03,0,0,1-1.537.168c-.888,0-1.656-.72-1.656-2.065,0-1.1.48-2.184,2.208-2.951a25.333,25.333,0,0,0,2.928-1.488v-1.248a2.337,2.337,0,0,0-.384-1.344,1.6,1.6,0,0,0-1.2-.361,2.5,2.5,0,0,0-1.392.432c-.336.24-.1.6-.1,1.177a1.258,1.258,0,0,1-1.44,1.391.78.78,0,0,1-.816-.815,2.549,2.549,0,0,1,1.1-1.969,6.332,6.332,0,0,1,3.888-1.343,2.771,2.771,0,0,1,2.209.671,2.257,2.257,0,0,1,.575,1.8l.049,3.792v1.153c0,1.3.191,1.679.624,1.679a.923.923,0,0,0,.768-.383c.1-.144.144-.144.24-.1l.288.192c.1.048.144.144.048.384a2.411,2.411,0,0,1-2.208,1.392,1.982,1.982,0,0,1-2.017-1.464Zm-.145-4.153c-1.056.673-2.64,1.08-2.64,2.833,0,.984.529,1.463,1.1,1.463.673-.047,1.536-.719,1.536-1.151Z"/><path class="a" d="M248.162,354.4a1.466,1.466,0,0,0-1.224-1.441l-.48-.144c-.144-.047-.144-.1-.144-.191v-.289c0-.047.049-.143.192-.192a20,20,0,0,0,3.6-1.392,2.161,2.161,0,0,1,.527-.143c.145,0,.24.1.24.432-.048,1.3-.095,6.289-.095,7.608V362.1c0,1.105,0,3.553.047,4.273.048.432.1.768.624.768h.913c.24,0,.288.048.288.216v.432c0,.144-.048.24-.144.24-.192,0-1.248-.072-2.929-.072-1.824,0-2.784.072-2.976.072-.144,0-.192-.1-.192-.24v-.457c0-.143.048-.191.336-.191h.912c.241,0,.6-.192.6-.864v-7.513C248.258,357.086,248.21,355.022,248.162,354.4Z"/><path class="a" d="M259.029,366.783a4.647,4.647,0,0,1-2.087,1.3,5.03,5.03,0,0,1-1.537.168c-.888,0-1.656-.72-1.656-2.065,0-1.1.48-2.184,2.208-2.951a25.334,25.334,0,0,0,2.928-1.488v-1.248a2.337,2.337,0,0,0-.384-1.344,1.6,1.6,0,0,0-1.2-.361,2.5,2.5,0,0,0-1.392.432c-.336.24-.1.6-.1,1.177a1.258,1.258,0,0,1-1.44,1.391.78.78,0,0,1-.816-.815,2.549,2.549,0,0,1,1.1-1.969,6.332,6.332,0,0,1,3.888-1.343,2.771,2.771,0,0,1,2.209.671,2.257,2.257,0,0,1,.575,1.8l.049,3.792v1.153c0,1.3.191,1.679.624,1.679a.922.922,0,0,0,.768-.383c.1-.144.144-.144.24-.1l.288.192c.1.048.144.144.048.384a2.412,2.412,0,0,1-2.208,1.392,1.982,1.982,0,0,1-2.017-1.464Zm-.144-4.153c-1.056.673-2.64,1.08-2.64,2.833,0,.984.529,1.463,1.1,1.463.673-.047,1.536-.719,1.536-1.151Z"/><path class="a" d="M268.257,366.567c0,.384.192.576.481.576h.527c.192,0,.24.048.24.216v.479c0,.121-.048.193-.192.193s-.96-.072-2.3-.072c-1.536,0-2.353.072-2.473.072s-.168-.1-.168-.24v-.457c0-.143.049-.191.241-.191h.624c.336,0,.48-.288.48-.576.048-.481.071-2.592.071-3.553l-.047-8.664c0-.912-.072-1.393-1.272-1.728-.24-.1-.336-.145-.336-.192v-.336c0-.1.1-.193.336-.24.672-.145,2.688-.912,3.024-1.008a2.417,2.417,0,0,1,.72-.24c.192,0,.216.1.192.384-.1,1.151-.144,4.7-.144,7.56V362.2a1.739,1.739,0,0,0,.96-.288,24.332,24.332,0,0,0,2.208-2.424.891.891,0,0,0,.168-.433c0-.143-.168-.311-.456-.311h-.216c-.12,0-.168-.049-.168-.193v-.5a.176.176,0,0,1,.193-.191c.143,0,1.007.072,2.4.072,1.319,0,1.895-.072,2.088-.072.12,0,.168.1.168.264v.432c0,.144-.048.193-.193.193h-.239a3.462,3.462,0,0,0-1.488.408,34.208,34.208,0,0,0-3.12,2.664c.719.815,4.128,4.607,4.7,4.992a2.71,2.71,0,0,0,1.248.336c.143,0,.192.048.192.216v.479c0,.145-.049.193-.24.193s-.864-.072-2.448-.072c-1.393,0-2.4.072-2.593.072-.144,0-.191-.048-.191-.24v-.408c0-.144.047-.192.191-.192h.192a.243.243,0,0,0,.241-.336c-.048-.24-2.3-2.929-2.832-3.552a1.109,1.109,0,0,0-.769-.289Z"/><path class="a" d="M284.7,366.615h-.144a4.055,4.055,0,0,1-3.169,1.632,2.615,2.615,0,0,1-2.472-1.056,4.689,4.689,0,0,1-.888-3.36c0-1.153.024-1.993.024-2.5,0-.576,0-1.44-.048-1.728a.867.867,0,0,0-.841-.863c-.383-.049-.527-.049-.527-.193v-.432c0-.144.048-.192.288-.192h2.88a1.354,1.354,0,0,0,.36-.049,1.287,1.287,0,0,1,.264-.046.267.267,0,0,1,.24.287c0,.24-.1,1.344-.1,3v1.512c0,.96-.168,2.593.479,3.6a1.494,1.494,0,0,0,1.536.672,2.3,2.3,0,0,0,1.681-.912,1.617,1.617,0,0,0,.264-.768v-5.665c0-.624-.456-.768-1.033-.815-.431-.049-.479-.1-.479-.193v-.432c0-.168.071-.192.287-.192h2.977a1.786,1.786,0,0,0,.408-.049,1.718,1.718,0,0,1,.312-.046c.144,0,.192.143.192.24a27.949,27.949,0,0,0-.144,3.24v1.752c0,1.152,0,2.3.048,2.783.1.721.336.817.528.817a4.974,4.974,0,0,0,.768-.048c.192-.025.263,0,.288.1l.072.383c.024.145-.024.194-.12.217l-2.977.84a1.39,1.39,0,0,1-.479.1.305.305,0,0,1-.337-.288Z"/><path class="a" d="M296.716,362.1c0,.168-.1.217-.288.217h-6.721c-.143,0-.191-.049-.191-.145v-1.248c0-.144.048-.191.191-.191h6.721c.192,0,.288.047.288.24Z"/><path class="a" d="M299.17,354.4a1.466,1.466,0,0,0-1.224-1.441l-.48-.144c-.144-.047-.144-.1-.144-.191v-.289c0-.047.048-.143.193-.192a19.921,19.921,0,0,0,3.6-1.392,2.178,2.178,0,0,1,.529-.143c.143,0,.24.1.24.432-.048,1.3-.1,6.289-.1,7.608V362.1c0,1.105,0,3.553.049,4.273.048.432.1.768.624.768h.912c.24,0,.288.048.288.216v.432c0,.144-.048.24-.144.24-.193,0-1.248-.072-2.928-.072-1.824,0-2.785.072-2.976.072-.145,0-.193-.1-.193-.24v-.457c0-.143.048-.191.336-.191h.912c.24,0,.6-.192.6-.864v-7.513C299.267,357.086,299.219,355.022,299.17,354.4Z"/><path class="a" d="M310.037,366.783a4.634,4.634,0,0,1-2.088,1.3,5.014,5.014,0,0,1-1.536.168c-.887,0-1.656-.72-1.656-2.065,0-1.1.481-2.184,2.208-2.951a25.643,25.643,0,0,0,2.929-1.488v-1.248a2.337,2.337,0,0,0-.384-1.344,1.6,1.6,0,0,0-1.2-.361,2.5,2.5,0,0,0-1.393.432c-.336.24-.1.6-.1,1.177a1.257,1.257,0,0,1-1.44,1.391.779.779,0,0,1-.815-.815,2.548,2.548,0,0,1,1.1-1.969,6.335,6.335,0,0,1,3.889-1.343,2.768,2.768,0,0,1,2.208.671,2.254,2.254,0,0,1,.576,1.8l.048,3.792v1.153c0,1.3.192,1.679.624,1.679a.923.923,0,0,0,.768-.383c.1-.144.144-.144.24-.1l.288.192c.1.048.144.144.048.384a2.41,2.41,0,0,1-2.208,1.392,1.981,1.981,0,0,1-2.016-1.464Zm-.143-4.153c-1.057.673-2.641,1.08-2.641,2.833,0,.984.528,1.463,1.105,1.463.671-.047,1.536-.719,1.536-1.151Z"/><path class="a" d="M316.6,368.174a.532.532,0,0,1-.313.073l-.336-.1c-.1-.048-.1-.1-.1-.192.047-.336.071-2.352.071-4.081l-.048-8.76c0-1.632-.264-1.92-1.032-2.161l-.288-.1c-.288-.049-.336-.1-.336-.193v-.239c0-.049.048-.144.24-.192a31.92,31.92,0,0,0,3.12-1.345,1.574,1.574,0,0,1,.721-.287c.191,0,.288.143.239.384,0,.192-.1,2.928-.119,5.016l-.024,2.88a4.8,4.8,0,0,1,3.288-1.223,4.18,4.18,0,0,1,3.505,2.015,5.6,5.6,0,0,1,.7,3c0,2.641-2.352,5.569-5.28,5.569a6.707,6.707,0,0,1-3.073-.624Zm1.8-5.4a9.409,9.409,0,0,0,.336,3.505,2.017,2.017,0,0,0,1.776,1.08,2.425,2.425,0,0,0,2.183-1.224,4.842,4.842,0,0,0,.624-2.688c0-2.784-1.151-4.345-3.047-4.345a2.773,2.773,0,0,0-1.872.721Z"/><path class="a" d="M336.447,359.079a5.178,5.178,0,0,1,1.657,3.792,5.507,5.507,0,0,1-1.489,3.648,5.319,5.319,0,0,1-4.032,1.728,4.691,4.691,0,0,1-3.888-1.728,5.041,5.041,0,0,1-1.3-3.721,5.359,5.359,0,0,1,2.016-3.984,5.2,5.2,0,0,1,3.408-1.151A5.069,5.069,0,0,1,336.447,359.079Zm-1.271,3.719c0-2.639-1.393-4.176-2.5-4.176a1.883,1.883,0,0,0-1.512.648,4.938,4.938,0,0,0-1.032,3.6,5.6,5.6,0,0,0,.744,3.336,2.017,2.017,0,0,0,1.9,1.032C334.36,367.239,335.176,365.247,335.176,362.8Z"/></g></svg>